<?xml version="1.0" standalone="no"?>
<!DOCTYPE svg PUBLIC "-//W3C//DTD SVG 20010904//EN"
 "http://www.w3.org/TR/2001/REC-SVG-20010904/DTD/svg10.dtd">
<svg version="1.0" xmlns="http://www.w3.org/2000/svg"
 width="300.000000pt" height="300.000000pt" viewBox="0 0 300.000000 300.000000"
 preserveAspectRatio="xMidYMid meet">
<metadata>
Created by potrace 1.11, written by Peter Selinger 2001-2013
</metadata>
<g transform="translate(0.000000,300.000000) scale(0.100000,-0.100000)"
fill="#000000" stroke="none">
<path d="M1403 2825 c-95 -21 -172 -71 -188 -123 -3 -12 -11 -20 -16 -17 -15
10 -10 -12 6 -25 10 -8 13 -21 8 -39 -6 -25 -5 -25 13 -10 25 21 74 33 74 18
0 -7 9 -9 23 -5 13 3 61 1 106 -4 71 -8 88 -14 118 -40 19 -17 41 -29 48 -26
8 3 26 -11 41 -31 15 -20 22 -33 15 -29 -32 20 17 -122 64 -184 22 -28 24 -49
8 -66 -9 -9 -16 -29 -16 -45 0 -16 -5 -26 -10 -22 -6 4 -8 -1 -4 -11 4 -10 7
-22 7 -28 0 -6 12 1 27 16 33 34 124 62 152 47 26 -14 34 -43 26 -89 -14 -87
-85 -162 -151 -162 -31 0 -34 3 -34 30 0 32 -6 36 -30 20 -9 -6 -20 -5 -29 3
-11 8 -13 9 -8 0 4 -7 -5 -15 -24 -22 -17 -6 -33 -19 -36 -29 -2 -10 -14 -25
-25 -33 -11 -8 -35 -25 -53 -40 -18 -14 -52 -31 -76 -38 -24 -7 -51 -16 -59
-19 -8 -3 -19 -6 -25 -7 -5 0 -22 -6 -37 -12 -32 -14 -146 -19 -172 -8 -13 6
-17 5 -13 -3 4 -6 27 -18 52 -28 l45 -17 0 -54 c0 -30 4 -52 9 -49 5 3 16 -5
25 -18 11 -18 24 -24 45 -24 17 1 28 5 25 10 -3 4 9 8 25 8 17 0 31 4 31 9 0
18 70 33 149 33 39 -1 59 4 69 16 7 9 11 11 7 5 -8 -16 7 -17 22 -2 6 6 17 8
23 4 8 -5 3 -15 -16 -32 l-29 -24 33 16 c18 9 32 11 32 5 0 -5 -6 -10 -12 -10
-7 0 -5 -5 5 -11 9 -6 14 -15 11 -21 -5 -7 -2 -9 8 -5 12 4 14 1 11 -13 -8
-31 17 -34 46 -6 20 21 23 28 12 35 -8 5 -9 11 -3 15 6 3 14 -3 17 -15 4 -11
9 -18 12 -16 2 3 0 15 -7 26 -6 12 -11 48 -11 81 -1 55 6 73 95 252 95 192
155 360 169 478 8 61 -27 161 -64 186 -15 10 -32 29 -38 41 -6 13 -15 23 -21
23 -6 0 -33 16 -61 35 -28 19 -58 35 -65 35 -8 0 -47 16 -87 36 -62 32 -83 37
-152 39 -44 2 -108 -3 -142 -10z"/>
<path d="M1102 2408 c-20 -20 -14 -28 32 -48 24 -10 49 -27 55 -37 6 -10 11
-13 11 -6 0 7 -8 20 -18 30 -11 10 -22 26 -25 35 -9 25 -41 40 -55 26z"/>
<path d="M1310 2385 c0 -8 5 -15 10 -15 6 0 10 5 10 11 0 8 4 8 13 1 7 -6 23
-8 36 -5 31 8 7 23 -36 23 -23 0 -33 -5 -33 -15z"/>
<path d="M1332 2327 c-15 -19 1 -42 31 -45 19 -2 27 2 27 13 0 20 5 19 39 -6
16 -12 35 -19 42 -17 19 6 -29 36 -85 53 -34 10 -47 11 -54 2z"/>
<path d="M1100 2325 c0 -2 5 -16 12 -30 14 -31 29 -28 39 8 7 25 5 27 -22 27
-16 0 -29 -2 -29 -5z"/>
<path d="M1829 2177 c-9 -7 -24 -27 -33 -45 -9 -18 -21 -30 -25 -27 -5 3 -7
-4 -4 -14 3 -10 -3 -31 -12 -45 -19 -28 -15 -32 16 -16 10 6 19 19 19 29 0 11
7 22 16 25 10 4 14 12 10 22 -4 9 1 28 10 41 12 19 21 23 40 19 26 -7 33 8 8
18 -21 8 -26 7 -45 -7z"/>
<path d="M1132 2112 c9 -10 23 -12 51 -8 24 4 45 2 53 -5 15 -12 44 -6 44 9 0
5 -11 7 -25 4 -14 -2 -25 0 -25 7 0 6 -21 10 -55 9 -46 -1 -53 -4 -43 -16z"/>
<path d="M1845 2030 c-10 -11 -27 -20 -37 -20 -11 0 -16 -4 -13 -10 8 -13 60
14 68 35 8 20 4 19 -18 -5z"/>
<path d="M1123 2013 c-29 -11 -9 -20 50 -21 34 -1 79 -4 101 -8 25 -4 36 -3
32 4 -3 6 -23 13 -44 16 -80 11 -128 14 -139 9z"/>
<path d="M1820 1585 c21 -26 3 -60 -69 -128 -124 -116 -274 -171 -391 -140
-30 8 -65 21 -78 29 -52 34 -86 138 -64 196 6 15 9 28 7 28 -1 0 -63 -30 -136
-68 -74 -37 -168 -81 -209 -97 -52 -21 -100 -50 -156 -97 -115 -96 -151 -172
-174 -363 -6 -49 -20 -146 -31 -214 l-21 -123 23 -24 c12 -13 30 -26 40 -29
14 -5 19 -19 21 -63 l3 -57 15 30 c8 16 23 31 32 33 20 4 168 -49 168 -60 0
-5 -5 -8 -11 -8 -5 0 -8 -4 -5 -9 17 -26 14 -125 -3 -171 -22 -57 -25 -52 84
-107 335 -169 804 -186 1176 -42 l81 31 -5 62 c-2 33 0 85 6 115 9 49 11 52
20 30 5 -13 13 -37 17 -54 8 -28 8 -29 9 -5 1 25 5 27 84 38 46 7 105 12 133
12 45 0 54 5 122 62 l74 61 -7 66 c-3 36 -13 95 -20 131 -8 36 -19 108 -25
160 -14 119 -23 162 -55 247 -28 73 -112 191 -173 243 -47 39 -202 140 -217
140 -6 0 -42 21 -80 46 -39 25 -86 54 -106 64 -19 10 -41 26 -48 34 -8 9 -20
16 -28 16 -13 0 -13 -3 -3 -15z m-145 -695 c-5 -8 -11 -8 -17 -2 -6 6 -7 16
-3 22 5 8 11 8 17 2 6 -6 7 -16 3 -22z m-39 -15 l26 -35 31 26 c28 24 32 25
43 9 7 -9 20 -43 30 -76 10 -32 20 -59 23 -59 3 0 24 28 45 63 21 34 41 57 43
51 2 -6 -18 -45 -44 -88 l-47 -77 -29 83 c-17 46 -31 85 -33 87 -2 2 -18 -7
-36 -21 l-32 -25 -33 43 c-18 23 -33 45 -33 48 0 16 22 2 46 -29z m381 22
c-12 -33 -141 -219 -144 -210 -5 13 128 223 141 223 4 0 6 -6 3 -13z m-112
-69 c-14 -24 -38 -64 -53 -90 -25 -45 -42 -60 -42 -38 0 16 101 170 112 170 5
0 -3 -19 -17 -42z m-216 -80 c37 -51 30 -66 -9 -19 l-29 34 -27 -22 c-44 -34
-57 -24 -16 14 20 19 40 35 44 35 3 0 20 -19 37 -42z"/>
<path d="M592 380 c0 -19 2 -27 5 -17 2 9 2 25 0 35 -3 9 -5 1 -5 -18z"/>
<path d="M2166 213 c9 -52 14 -54 14 -5 0 23 -5 42 -10 42 -7 0 -8 -14 -4 -37z"/>
</g>
</svg>
