<?xml version="1.0" standalone="no"?>
<!DOCTYPE svg PUBLIC "-//W3C//DTD SVG 20010904//EN"
 "http://www.w3.org/TR/2001/REC-SVG-20010904/DTD/svg10.dtd">
<svg version="1.0" xmlns="http://www.w3.org/2000/svg"
 width="300.000000pt" height="300.000000pt" viewBox="0 0 300.000000 300.000000"
 preserveAspectRatio="xMidYMid meet">
<metadata>
Created by potrace 1.14, written by Peter Selinger 2001-2017
</metadata>
<g transform="translate(0.000000,300.000000) scale(0.100000,-0.100000)"
fill="#000000" stroke="none">
<path d="M1310 2989 c-25 -4 -63 -10 -85 -14 -204 -33 -440 -136 -621 -272
-82 -60 -226 -199 -269 -258 -17 -22 -32 -42 -36 -45 -3 -3 -24 -32 -46 -65
-238 -357 -313 -813 -202 -1225 103 -380 353 -708 694 -908 153 -90 353 -160
534 -187 113 -16 334 -17 442 0 630 96 1125 569 1250 1196 27 131 33 373 13
504 -47 312 -192 606 -407 826 -232 237 -503 381 -827 439 -77 14 -375 20
-440 9z"/>
</g>
</svg>
