<svg width="95" height="40" viewBox="0 0 95 40" fill="none" xmlns="http://www.w3.org/2000/svg">
<path fill-rule="evenodd" clip-rule="evenodd" d="M94.93 4.19143C94.93 5.8105 94.0757 8.46376 93.1637 11.2961L93.1637 11.2962C92.4093 13.6392 91.6154 16.1047 91.233 18.2088H90.6685C90.31 16.0579 89.5139 13.5293 88.7619 11.1411L88.7619 11.1411C87.8889 8.36876 87.0756 5.78562 87.0756 4.20204C87.0756 2.12224 88.2025 0 91.0208 0C93.8031 0 94.93 2.12224 94.93 4.19143ZM91.1269 26.3455C91.5209 26.3439 91.9106 26.2639 92.2734 26.1103C92.6362 25.9567 92.9648 25.7324 93.2401 25.4506C93.5154 25.1688 93.7319 24.835 93.877 24.4687C94.0221 24.1024 94.0929 23.711 94.0853 23.3171C94.0846 22.932 94.007 22.551 93.8572 22.1964C93.7074 21.8417 93.4883 21.5204 93.2128 21.2515C92.9373 20.9825 92.6109 20.7712 92.2528 20.6299C91.8946 20.4886 91.5119 20.4202 91.1269 20.4287C89.4291 20.4287 88.0985 21.7318 88.0985 23.3171C88.0954 23.7156 88.1716 24.1108 88.3227 24.4797C88.4738 24.8485 88.6967 25.1836 88.9786 25.4654C89.2604 25.7473 89.5955 25.9702 89.9643 26.1213C90.3332 26.2724 90.7284 26.3486 91.1269 26.3455ZM46.8718 26.3456C49.4779 26.3456 51.3434 24.6903 52.2241 23.3872L51.9143 23.141C51.4919 23.5273 51.1736 23.7056 50.6812 23.7056C50.1889 23.7056 49.6604 23.4572 49.6604 22.4704V12.9967C49.6604 10.1444 46.6914 8.02431 42.2517 8.02431C37.812 8.02431 34.9958 9.8558 34.9958 12.0396C34.9958 13.6949 35.9465 15.068 37.9881 15.068C39.792 15.068 41.4113 13.9836 41.7636 12.8567C41.059 12.723 40.3905 11.9059 40.3905 10.8129C40.3905 9.62024 41.025 8.77134 42.222 8.77134C43.1728 8.77134 43.6651 9.40377 43.6651 10.2145V15.2505C38.629 16.6597 33.5569 18.5273 33.5569 22.1542C33.5569 24.5842 34.93 26.3456 38.0666 26.3456C40.4266 26.3456 42.5042 24.7264 43.7373 23.4933C43.9834 24.9025 44.7496 26.3456 46.8718 26.3456ZM43.6651 16.0612V22.5765C43.2172 22.9981 42.6346 23.2477 42.0204 23.2811C40.885 23.2811 40.1104 22.4704 40.1104 21.2735C40.1104 19.2658 41.9397 17.082 43.6651 16.0612ZM32.8268 11.2012C32.8268 13.1112 31.2776 14.1935 28.7755 14.2657C28.6354 13.1366 28.0709 12.0097 26.8378 12.0097C25.3947 12.0097 24.0556 13.5611 24.0556 15.921V22.1901C24.0556 24.3739 24.444 25.5008 25.8531 25.5008V25.9932H16.2733V25.5008C17.6804 25.5008 18.0687 24.3739 18.0687 22.1901V13.1727C18.0687 10.9889 17.7865 9.93206 16.371 10.1782L16.3009 9.68588L18.5272 9.29963L24.0556 8.23851V13.0327C24.8663 10.5305 26.6023 8.03053 29.1277 8.03053C31.7699 8.03053 32.8268 9.6498 32.8268 11.2012ZM0 17.5403C0 12.2581 3.27674 8.06452 8.45289 8.06452C11.9758 8.06452 14.1235 9.50976 14.1235 11.7997C14.1235 13.2428 13.3128 14.2997 11.7636 14.2997C10.9529 14.2997 10.1783 13.9134 9.85357 13.1367C9.85357 10.5306 9.53735 8.84126 8.4444 8.84126C6.57895 8.84126 5.52207 12.152 5.52207 14.9682C5.52207 18.385 7.17742 21.6256 10.2759 21.6256C12.5297 21.6256 13.3765 20.711 14.4673 19.4079L14.8918 19.6201C13.8306 22.9669 11.511 26.2776 7.07343 26.2776C3.13455 26.2755 0 22.9648 0 17.5403ZM70.5454 8.38285V8.87521C68.784 8.87521 67.621 11.059 66.9525 12.6804L61.388 26.1354H59.2105L53.2873 11.9058C52.4767 9.86206 51.5896 8.87521 50.7407 8.87521V8.38285H60.0594V8.87521C58.6503 8.87521 58.8964 9.86206 59.7432 11.9058L63.0178 19.7241L65.1528 14.5819C66.2797 11.8697 65.8574 8.87521 63.4975 8.87521V8.38285H70.5454ZM85.66 19.1957L85.2016 19.0557C84.5331 20.3587 82.6655 21.6257 79.9533 21.6257C76.7487 21.6257 75.4117 18.8434 75.2356 15.745H85.6961C85.6961 13.1028 83.4041 8.06457 78.1261 8.06244C72.8778 8.06244 69.6711 12.2199 69.6711 17.1499C69.6711 22.2242 72.8756 26.2755 77.5234 26.2755C82.4894 26.2755 84.9554 22.6465 85.66 19.1957ZM80.1655 14.8557H75.1995C75.2356 12.0798 76.1163 8.84131 77.9457 8.83282C79.6732 8.83282 80.1316 12.4258 80.1655 14.8557ZM19.1559 36.9269C19.1559 38.0729 19.9623 39.0491 21.1338 39.0491C22.178 39.0491 22.7382 38.3191 22.7382 38.3191L23.4174 38.9897C23.4174 38.9897 22.6364 39.9999 21.1338 39.9999C19.4191 39.9999 18.1202 38.6841 18.1202 36.9269C18.1202 35.1697 19.4191 33.8539 21.1338 33.8539C22.56 33.8539 23.3325 34.7877 23.3325 34.7877L22.6449 35.4583C22.6449 35.4583 22.1101 34.8047 21.1338 34.8047C19.9623 34.8047 19.1559 35.7809 19.1559 36.9269ZM27.4478 39.898H26.4206L28.7296 33.9558H29.7652L32.0742 39.898H31.0471L30.5038 38.4889H27.9911L27.4478 39.898ZM30.1388 37.5551L29.2474 35.2376L28.3561 37.5551H30.1388ZM36.3665 39.898H37.3852V34.9235H39.0235V33.9558H34.7281V34.9235H36.3665V39.898ZM46.1728 34.9235H43.5921V36.3666H45.969V37.3344H43.5921V38.9303H46.2237V39.898H42.5734V33.9558H46.1728V34.9235ZM50.0089 39.898H51.0276V37.657H51.4945L52.9036 39.898H54.0921L52.6065 37.589C53.4554 37.3768 53.9308 36.6977 53.9308 35.8064C53.9308 34.7198 53.1413 33.9558 51.9614 33.9558H50.0089V39.898ZM51.834 36.6892H51.0276V34.9235H51.834C52.4877 34.9235 52.8952 35.2206 52.8952 35.8064C52.8952 36.3921 52.4877 36.6892 51.834 36.6892ZM58.8969 39.898H57.8782V33.9558H58.8969V39.898ZM63.0726 39.898H64.0913V35.8148L67.0624 39.898H67.9792V33.9558H66.9606V38.0474L63.9894 33.9558H63.0726V39.898ZM72.7296 36.9269C72.7296 38.0729 73.6209 39.0491 74.8178 39.0491C75.6667 39.0491 76.0148 38.7605 76.0148 38.7605V37.5041H74.665V36.5534H77.0165V39.2529C77.0165 39.2529 76.261 39.9999 74.8178 39.9999C73.0776 39.9999 71.6939 38.6841 71.6939 36.9269C71.6939 35.1697 73.0352 33.8539 74.7754 33.8539C76.2355 33.8539 76.974 34.7452 76.974 34.7452L76.2779 35.4244C76.2779 35.4244 75.7856 34.8047 74.7754 34.8047C73.5784 34.8047 72.7296 35.7809 72.7296 36.9269Z" fill="white"/>
</svg>
