<svg width="115" height="48" viewBox="0 0 115 48" fill="none" xmlns="http://www.w3.org/2000/svg">
<path fill-rule="evenodd" clip-rule="evenodd" d="M112.082 13.5899C113.179 10.1824 114.207 6.99039 114.207 5.04254C114.207 2.55319 112.851 0 109.504 0C106.113 0 104.757 2.55319 104.757 5.05531C104.757 6.96046 105.736 10.0681 106.786 13.4034L106.786 13.4035L106.786 13.4036L106.786 13.4038L106.786 13.4039L106.786 13.404L106.786 13.4041C107.691 16.2771 108.649 19.3189 109.08 21.9063H109.759C110.219 19.3752 111.174 16.4092 112.081 13.5906L112.081 13.5906L112.082 13.5904L112.082 13.5904L112.082 13.5902L112.082 13.5901L112.082 13.5899ZM111.011 31.4123C110.574 31.5971 110.105 31.6933 109.631 31.6953C109.152 31.699 108.676 31.6073 108.233 31.4255C107.789 31.2438 107.386 30.9755 107.047 30.6365C106.708 30.2974 106.439 29.8943 106.258 29.4505C106.076 29.0068 105.984 28.5314 105.988 28.0519C105.988 26.1446 107.589 24.577 109.631 24.577C110.094 24.5668 110.555 24.6491 110.986 24.819C111.417 24.989 111.809 25.2432 112.141 25.5668C112.472 25.8904 112.736 26.2769 112.916 26.7036C113.096 27.1303 113.19 27.5887 113.19 28.0519C113.2 28.5258 113.114 28.9967 112.94 29.4374C112.765 29.878 112.505 30.2796 112.174 30.6186C111.842 30.9577 111.447 31.2275 111.011 31.4123ZM62.8288 28.1361C61.7692 29.7038 59.525 31.6953 56.3897 31.6953C53.8365 31.6953 52.9148 29.9591 52.6186 28.2638C51.1352 29.7472 48.6357 31.6953 45.7965 31.6953C42.0229 31.6953 40.371 29.5761 40.371 26.6527C40.371 22.2893 46.4731 20.0425 52.5318 18.3472V12.2885C52.5318 11.3132 51.9395 10.5523 50.7957 10.5523C49.3557 10.5523 48.5923 11.5736 48.5923 13.0085C48.5923 14.3234 49.3965 15.3064 50.2442 15.4672C49.8203 16.823 47.8722 18.1276 45.702 18.1276C43.2459 18.1276 42.102 16.4757 42.102 14.4842C42.102 11.857 45.4901 9.65361 50.8314 9.65361C56.1727 9.65361 59.7446 12.2042 59.7446 15.6357V27.0332C59.7446 28.2204 60.3803 28.5191 60.9727 28.5191C61.565 28.5191 61.948 28.3046 62.4561 27.84L62.8288 28.1361ZM52.5318 27.1608V19.3225C50.4561 20.5506 48.2552 23.1778 48.2552 25.5932C48.2552 27.0332 49.1871 28.0085 50.5531 28.0085C51.292 27.9683 51.993 27.668 52.5318 27.1608ZM34.6186 17.1625C37.6288 17.0757 39.4927 15.7736 39.4927 13.4757C39.4927 11.6094 38.2212 9.66128 35.0425 9.66128C32.0042 9.66128 29.9157 12.6689 28.9404 15.6791V9.91149L22.2893 11.1881L19.611 11.6528L19.6953 12.2451C21.3982 11.9489 21.7378 13.2204 21.7378 15.8477V26.6961C21.7378 29.3234 21.2706 30.6791 19.5778 30.6791V31.2715H31.1029V30.6791C29.4076 30.6791 28.9404 29.3234 28.9404 26.6961V19.154C28.9404 16.3149 30.5514 14.4485 32.2876 14.4485C33.771 14.4485 34.4501 15.8042 34.6186 17.1625ZM10.1693 9.70211C3.94212 9.70211 0 14.7472 0 21.1021C0 27.628 3.77106 31.611 8.50977 31.6136C13.8485 31.6136 16.6391 27.6306 17.9157 23.6042L17.4051 23.3489C16.0927 24.9165 15.074 26.017 12.3625 26.017C8.63488 26.017 6.64339 22.1183 6.64339 18.0076C6.64339 14.6195 7.91488 10.6366 10.1591 10.6366C11.474 10.6366 11.8544 12.6689 11.8544 15.8042C12.2451 16.7387 13.177 17.2034 14.1523 17.2034C16.0161 17.2034 16.9915 15.9319 16.9915 14.1957C16.9915 11.4408 14.4076 9.70211 10.1693 9.70211ZM84.8705 10.6774V10.0851H76.3913V10.6774C79.2305 10.6774 79.7386 14.28 78.3828 17.5429L75.8143 23.7293L71.8748 14.3234C70.856 11.8647 70.5599 10.6774 72.2552 10.6774V10.0851H61.0441V10.6774C62.0654 10.6774 63.1326 11.8647 64.108 14.3234L71.2339 31.4425H73.8535L80.5479 15.2553C81.3522 13.3047 82.7513 10.6774 84.8705 10.6774ZM102.503 22.9251L103.054 23.0936C102.207 27.2451 99.2398 31.611 93.2654 31.611C87.6739 31.611 83.8186 26.737 83.8186 20.6323C83.8186 14.7012 87.6764 9.69955 93.9905 9.69955C100.34 9.70211 103.098 15.7634 103.098 18.9421H90.513C90.725 22.6697 92.3335 26.017 96.1888 26.017C99.4517 26.017 101.699 24.4927 102.503 22.9251ZM90.4696 17.8723H96.4441C96.4032 14.9489 95.8517 10.6264 93.7735 10.6264C91.5726 10.6366 90.513 14.5327 90.4696 17.8723ZM30.4799 44.3233C30.4783 44.8089 30.3808 45.2893 30.193 45.7372C30.0053 46.185 29.7309 46.5913 29.3858 46.9329C29.0407 47.2745 28.6315 47.5445 28.1818 47.7276C27.7321 47.9107 27.2506 48.0033 26.765 47.9999H23.8008V40.662H26.765C27.2494 40.6583 27.7298 40.7501 28.1787 40.9321C28.6276 41.1142 29.0362 41.3829 29.3812 41.7229C29.7262 42.0629 30.0008 42.4676 30.1893 42.9138C30.3778 43.36 30.4766 43.8389 30.4799 44.3233ZM29.165 44.3233C29.165 43.6868 28.9122 43.0763 28.4621 42.6263C28.012 42.1762 27.4016 41.9233 26.765 41.9233H25.1157V46.7233H26.765C27.4016 46.7233 28.012 46.4705 28.4621 46.0204C28.9122 45.5703 29.165 44.9598 29.165 44.3233ZM35.1012 43.9148V41.9233H39.1735V40.6621H33.7889V47.9999H39.1863V46.7233H35.1012V45.1761H38.5276V43.9148H35.1012ZM49.0646 46.7233V47.9999H43.3557V40.6621H44.6808V46.7233H49.0646ZM53.3616 40.6621H52.0467V47.9999H53.3616V40.6621ZM56.8569 40.6646H58.2663L60.4211 46.2535L62.5735 40.6646H63.9854L61.1309 47.982H59.7088L56.8569 40.6646ZM68.6373 43.9148V41.9233H72.7096V40.6621H67.3224V47.9999H72.7096V46.7233H68.6373V45.1761H72.0637V43.9148H68.6373ZM80.1318 45.559L81.6356 47.9871H80.0883L78.6611 45.6893H77.5862V47.9871H76.2713V40.662H79.3352C79.9341 40.6586 80.5145 40.8695 80.9715 41.2565C81.4285 41.6436 81.7321 42.1813 81.8274 42.7726C81.9226 43.3639 81.8033 43.9697 81.4909 44.4807C81.1786 44.9918 80.6938 45.3742 80.1241 45.559H80.1318ZM77.5786 44.4203H79.3352C79.6663 44.4203 79.9838 44.2888 80.218 44.0546C80.4521 43.8205 80.5837 43.5029 80.5837 43.1718C80.5837 42.8407 80.4521 42.5231 80.218 42.289C79.9838 42.0548 79.6663 41.9233 79.3352 41.9233H77.5786V44.4203ZM88.2509 47.9999V45.5693L91.0926 40.6748H89.5786L87.5922 44.1701L85.6058 40.6748H84.0918L86.936 45.5821V47.9999H88.2509Z" fill="#ffffff"/>
</svg>
